<svg width="45" height="54" viewBox="0 0 45 54" fill="none" xmlns="http://www.w3.org/2000/svg">
<path d="M0 0H29.4016L42.6316 13.115V25.8261H37.8947V18.7826H23.6842V4.69565H4.73684V46.9565H21.3158V51.6522H0V0ZM28.4211 5.66765V14.087H36.9142L28.4211 5.66765ZM26.0526 34.0435C26.0526 32.4868 26.6765 30.9938 27.7869 29.8931C28.8973 28.7923 30.4033 28.1739 31.9737 28.1739C33.544 28.1739 35.0501 28.7923 36.1605 29.8931C37.2709 30.9938 37.8947 32.4868 37.8947 34.0435V44.6087H33.1579V34.0435C33.1579 33.7321 33.0331 33.4335 32.8111 33.2134C32.589 32.9932 32.2878 32.8696 31.9737 32.8696C31.6596 32.8696 31.3584 32.9932 31.1363 33.2134C30.9142 33.4335 30.7895 33.7321 30.7895 34.0435V44.6087C30.7895 45.8541 31.2885 47.0484 32.1769 47.929C33.0652 48.8096 34.27 49.3043 35.5263 49.3043C36.7826 49.3043 37.9874 48.8096 38.8758 47.929C39.7641 47.0484 40.2632 45.8541 40.2632 44.6087V35.2174H45V44.6087C45 47.0994 44.0019 49.4881 42.2252 51.2493C40.4486 53.0106 38.0389 54 35.5263 54C33.0137 54 30.6041 53.0106 28.8274 51.2493C27.0507 49.4881 26.0526 47.0994 26.0526 44.6087V34.0435Z" fill="#87B6C1"/>
</svg>
