<svg width="487" height="487" viewBox="0 0 487 487" fill="none" xmlns="http://www.w3.org/2000/svg">
<g clip-path="url(#clip0_59_6)">
<path d="M295.2 0C276.8 0 259.2 9.6 243.2 27.2C228 9.6 210.4 0 191.2 0C128.8 0 2.3999 54.4 2.3999 188.8C2.3999 323.2 128.8 486.4 191.2 486.4C209.6 486.4 227.2 476.8 243.2 459.2C258.4 476.8 276 486.4 295.2 486.4C357.6 486.4 484 323.2 484 188.8C484 54.4 356.8 0 295.2 0Z" fill="#12D6BF"/>
<path d="M2.3999 188.8C2.3999 323.2 128.8 486.4 191.2 486.4C209.6 486.4 227.2 476.8 243.2 459.2C258.4 476.8 276 486.4 295.2 486.4C357.6 486.4 484 323.2 484 188.8C484 54.4 357.6 0 295.2 0C276.8 0 259.2 9.6 243.2 27.2C228 9.6 210.4 0 191.2 0" fill="#08C4B2"/>
<path d="M243.2 459.2C258.4 476.8 276 486.4 295.2 486.4C357.6 486.4 484 323.2 484 188.8C484 54.4 357.6 0 295.2 0C276.8 0 259.2 9.6 243.2 27.2" fill="#04A0A0"/>
<path d="M243.2 459.2C258.4 476.8 276 486.4 295.2 486.4C357.6 486.4 484 323.2 484 188.8" fill="#16959B"/>
<path d="M99.2002 107.2V187.2H211.2" fill="#04A0A0"/>
<path d="M99.2002 107.2V187.2H211.2" stroke="#5DEDE9" stroke-width="2" stroke-miterlimit="10" stroke-linecap="round" stroke-linejoin="round"/>
<path d="M211.2 187.2V259.2H75.2002" fill="#04A0A0"/>
<path d="M211.2 187.2V259.2H75.2002" stroke="#5DEDE9" stroke-width="2" stroke-miterlimit="10" stroke-linecap="round" stroke-linejoin="round"/>
<path d="M75.2002 299.2H115.2V363.2H179.2V267.2" fill="#04A0A0"/>
<path d="M75.2002 299.2H115.2V363.2H179.2V267.2" stroke="#5DEDE9" stroke-width="2" stroke-miterlimit="10" stroke-linecap="round" stroke-linejoin="round"/>
<path d="M176.8 361.6L219.2 403.2V435.2H163.2" fill="#04A0A0"/>
<path d="M176.8 361.6L219.2 403.2V435.2H163.2" stroke="#5DEDE9" stroke-width="2" stroke-miterlimit="10" stroke-linecap="round" stroke-linejoin="round"/>
<path d="M139.2 139.2H177.6L216 99.2L201.6 83.2H83.2002" fill="#04A0A0"/>
<path d="M139.2 139.2H177.6L216 99.2L201.6 83.2H83.2002" stroke="#5DEDE9" stroke-width="2" stroke-miterlimit="10" stroke-linecap="round" stroke-linejoin="round"/>
<path d="M211.2 291.2V339.2" stroke="#5DEDE9" stroke-width="2" stroke-miterlimit="10" stroke-linecap="round" stroke-linejoin="round"/>
<path d="M49.6001 188.8L67.2001 205.6" stroke="#5DEDE9" stroke-width="1.5" stroke-miterlimit="10" stroke-linecap="round" stroke-linejoin="round"/>
<path d="M387.2 107.2V187.2H275.2" fill="#307F87"/>
<path d="M387.2 107.2V187.2H275.2" stroke="#5DEDE9" stroke-width="2" stroke-miterlimit="10" stroke-linecap="round" stroke-linejoin="round"/>
<path d="M275.2 187.2V259.2H411.2" fill="#307F87"/>
<path d="M275.2 187.2V259.2H411.2" stroke="#5DEDE9" stroke-width="2" stroke-miterlimit="10" stroke-linecap="round" stroke-linejoin="round"/>
<path d="M411.2 299.2H371.2V363.2H307.2V267.2" fill="#307F87"/>
<path d="M411.2 299.2H371.2V363.2H307.2V267.2" stroke="#5DEDE9" stroke-width="2" stroke-miterlimit="10" stroke-linecap="round" stroke-linejoin="round"/>
<path d="M309.6 361.6L267.2 403.2V435.2H323.2" fill="#307F87"/>
<path d="M309.6 361.6L267.2 403.2V435.2H323.2" stroke="#5DEDE9" stroke-width="2" stroke-miterlimit="10" stroke-linecap="round" stroke-linejoin="round"/>
<path d="M347.2 139.2H308.8L270.4 99.2L284.8 83.2H403.2" fill="#307F87"/>
<path d="M347.2 139.2H308.8L270.4 99.2L284.8 83.2H403.2" stroke="#5DEDE9" stroke-width="2" stroke-miterlimit="10" stroke-linecap="round" stroke-linejoin="round"/>
<path d="M275.2 291.2V339.2" stroke="#5DEDE9" stroke-width="2" stroke-miterlimit="10" stroke-linecap="round" stroke-linejoin="round"/>
<path d="M436.8 188.8L419.2 205.6" stroke="#5DEDE9" stroke-width="1.5" stroke-miterlimit="10" stroke-linecap="round" stroke-linejoin="round"/>
<path d="M101.6 59.2C103.809 59.2 105.6 57.4092 105.6 55.2C105.6 52.9909 103.809 51.2 101.6 51.2C99.391 51.2 97.6001 52.9909 97.6001 55.2C97.6001 57.4092 99.391 59.2 101.6 59.2Z" fill="#6CF4ED"/>
<path d="M120 59.2C122.209 59.2 124 57.4092 124 55.2C124 52.9909 122.209 51.2 120 51.2C117.791 51.2 116 52.9909 116 55.2C116 57.4092 117.791 59.2 120 59.2Z" fill="#6CF4ED"/>
<path d="M139.2 59.2C141.409 59.2 143.2 57.4092 143.2 55.2C143.2 52.9909 141.409 51.2 139.2 51.2C136.991 51.2 135.2 52.9909 135.2 55.2C135.2 57.4092 136.991 59.2 139.2 59.2Z" fill="#6CF4ED"/>
<path d="M157.6 59.2C159.809 59.2 161.6 57.4092 161.6 55.2C161.6 52.9909 159.809 51.2 157.6 51.2C155.391 51.2 153.6 52.9909 153.6 55.2C153.6 57.4092 155.391 59.2 157.6 59.2Z" fill="#6CF4ED"/>
<path d="M176.8 59.2C179.009 59.2 180.8 57.4092 180.8 55.2C180.8 52.9909 179.009 51.2 176.8 51.2C174.591 51.2 172.8 52.9909 172.8 55.2C172.8 57.4092 174.591 59.2 176.8 59.2Z" fill="#6CF4ED"/>
<path d="M195.2 59.2C197.409 59.2 199.2 57.4092 199.2 55.2C199.2 52.9909 197.409 51.2 195.2 51.2C192.991 51.2 191.2 52.9909 191.2 55.2C191.2 57.4092 192.991 59.2 195.2 59.2Z" fill="#6CF4ED"/>
<path d="M291.2 59.2C293.409 59.2 295.2 57.4092 295.2 55.2C295.2 52.9909 293.409 51.2 291.2 51.2C288.991 51.2 287.2 52.9909 287.2 55.2C287.2 57.4092 288.991 59.2 291.2 59.2Z" fill="#08C4B2"/>
<path d="M309.6 59.2C311.809 59.2 313.6 57.4092 313.6 55.2C313.6 52.9909 311.809 51.2 309.6 51.2C307.391 51.2 305.6 52.9909 305.6 55.2C305.6 57.4092 307.391 59.2 309.6 59.2Z" fill="#08C4B2"/>
<path d="M328.8 59.2C331.009 59.2 332.8 57.4092 332.8 55.2C332.8 52.9909 331.009 51.2 328.8 51.2C326.591 51.2 324.8 52.9909 324.8 55.2C324.8 57.4092 326.591 59.2 328.8 59.2Z" fill="#08C4B2"/>
<path d="M347.2 59.2C349.409 59.2 351.2 57.4092 351.2 55.2C351.2 52.9909 349.409 51.2 347.2 51.2C344.991 51.2 343.2 52.9909 343.2 55.2C343.2 57.4092 344.991 59.2 347.2 59.2Z" fill="#08C4B2"/>
<path d="M366.4 59.2C368.609 59.2 370.4 57.4092 370.4 55.2C370.4 52.9909 368.609 51.2 366.4 51.2C364.191 51.2 362.4 52.9909 362.4 55.2C362.4 57.4092 364.191 59.2 366.4 59.2Z" fill="#08C4B2"/>
<path d="M384.8 59.2C387.009 59.2 388.8 57.4092 388.8 55.2C388.8 52.9909 387.009 51.2 384.8 51.2C382.591 51.2 380.8 52.9909 380.8 55.2C380.8 57.4092 382.591 59.2 384.8 59.2Z" fill="#08C4B2"/>
</g>
<defs>
<clipPath id="clip0_59_6">
<rect width="486.4" height="486.4" fill="white"/>
</clipPath>
</defs>
</svg>
