<?xml version="1.0" encoding="utf-8"?>
<!-- Generator: Adobe Illustrator 23.0.2, SVG Export Plug-In . SVG Version: 6.00 Build 0)  -->
<svg version="1.1" xmlns="http://www.w3.org/2000/svg" xmlns:xlink="http://www.w3.org/1999/xlink" x="0px" y="0px"
	 viewBox="0 0 612 612" style="enable-background:new 0 0 612 612;" xml:space="preserve">
<style type="text/css">
	.st0{fill:#B8E0C6;}
	.st1{fill:#FFFFFF;}
	.st2{fill:#002845;}
	.st3{fill:url(#SVGID_1_);}
	.st4{display:none;}
	.st5{display:inline;fill:#369986;}
</style>
<g id="Layer_1">
</g>
<g id="heartbeat">
	<circle class="st0" cx="306" cy="306" r="300"/>
	<circle class="st1" cx="306" cy="306" r="275.7"/>
	<path class="st0" d="M514.1,324.6c-6.4,0-12,3.5-15,8.6h-47.4c-9-24.1-29.6-39.8-61.8-47v-1.1c19.6-5.4,34.2-14.2,43.7-26.4
		c9.5-12.2,14.3-28,14.3-47.4v-15.1c0-29.4-10.6-51.2-31.9-65.4c-21.3-14.2-55-21.3-101.4-21.3H203.4H179v22.9v218.6h3.2h21.2h42.2
		l10.8,31.2l29.5-79.7l35,146.2l23.5-97.8h66.3c0.1,1.9,0.2,3.7,0.2,5.6v28.4c0,25.5-10.2,45-30.5,58.4
		c-20.4,13.4-50.2,20.1-89.4,20.1H179v22.9h141.4c44.7,0,78.6-7.6,101.8-22.9c23.2-15.3,34.7-37.4,34.7-66.5v-32.3
		c0-4.8-0.3-9.4-0.9-13.8h43.3c3.1,5,8.5,8.3,14.8,8.3c9.6,0,17.4-7.8,17.4-17.4C531.5,332.4,523.7,324.6,514.1,324.6z M354.1,333.2
		l-9.6-29.2l-24.5,78.7L289,239.6l-28.5,93.7h-57V132.5h82.5c40.7,0,70.4,6.2,89.1,18.7c18.7,12.5,28,31.6,28,57.5v13.2
		c0,10.7-1.7,20.1-5,28.4l0,0l0,0c-2,4.9-4.5,9.3-7.6,13.3c-1.4,1.8-3,3.5-4.6,5.1l-16.3,24.5c19.9,8.2,32.7,21.5,38.2,40.1H354.1z"
		/>
	<path class="st2" d="M382.4,294.2v-1.1c19.6-5.4,34.2-14.2,43.7-26.4c9.5-12.2,14.3-28,14.3-47.4v-15.1c0-29.4-10.6-51.2-31.9-65.4
		c-21.3-14.2-55-21.3-101.4-21.3H195.9h-24.4v22.9V359h24.4V140.4h82.5c40.7,0,70.4,6.2,89.1,18.7c18.7,12.5,28,31.6,28,57.5v13.2
		c0,17-4.2,30.9-12.6,41.6c-8.4,10.7-21.2,18.4-38.4,23.2v0.9c39.3,8.8,58.9,31.9,58.9,69.1V393c0,25.5-10.2,45-30.5,58.4
		c-20.4,13.4-50.2,20.1-89.4,20.1H171.5v22.9H313c44.7,0,78.6-7.6,101.8-22.9c23.2-15.3,34.7-37.4,34.7-66.5v-32.3
		C449.5,330.4,427.1,304.2,382.4,294.2z"/>
	<linearGradient id="SVGID_1_" gradientUnits="userSpaceOnUse" x1="174.6932" y1="352.1477" x2="524.0111" y2="352.1477">
		<stop  offset="0" style="stop-color:#002845"/>
		<stop  offset="0.3547" style="stop-color:#002845"/>
		<stop  offset="0.422" style="stop-color:#032F49"/>
		<stop  offset="0.5208" style="stop-color:#0D4354"/>
		<stop  offset="0.639" style="stop-color:#1C6367"/>
		<stop  offset="0.7714" style="stop-color:#329081"/>
		<stop  offset="0.7961" style="stop-color:#369986"/>
		<stop  offset="0.8249" style="stop-color:#369986"/>
		<stop  offset="1" style="stop-color:#369986"/>
	</linearGradient>
	<path class="st3" d="M506.6,332.6c-6.4,0-12,3.5-15,8.6H346.6l-9.6-29.2l-24.5,78.7l-30.9-143.1L253,341.2h-78.3V359h63.4
		l10.8,31.2l29.5-79.7l35,146.2l23.5-97.8h154.9c3.1,5,8.5,8.3,14.8,8.3c9.6,0,17.4-7.8,17.4-17.4S516.2,332.6,506.6,332.6z"/>
</g>
<g id="culori" class="st4">
	
		<image style="display:inline;overflow:visible;" width="1600" height="1200" xlink:href="78F04858.jpg"  transform="matrix(0.4138 0 0 0.4138 -25.04 -673.68)">
	</image>
	<rect x="501.7" y="-673.7" class="st5" width="135.4" height="461"/>
	<text transform="matrix(0 -1 1 0 580.0396 -236.4414)" style="display:inline; font-family:'MyriadPro-Regular'; font-size:20px;">369986</text>
</g>
</svg>
