<svg width="455" height="393" viewBox="0 0 455 393" fill="none" xmlns="http://www.w3.org/2000/svg">
<path d="M340.973 0.266541L454.446 196.5L340.973 392.733H114.027L0.553467 196.5L114.027 0.266541H340.973Z" fill="#B8E0C6"/>
<mask id="mask0_170_271" style="mask-type:luminance" maskUnits="userSpaceOnUse" x="0" y="0" width="455" height="393">
<path d="M114.027 392.733L0.553467 196.5L114.027 0.266541H340.973L454.446 196.5L340.973 392.733H114.027Z" fill="white"/>
</mask>
<g mask="url(#mask0_170_271)">
<path d="M262.691 373.923H245.673V356.873H226.041V373.923H209.023V393.462H226.041V410.512H245.673V393.462H262.691V373.923Z" fill="#F7F7F7"/>
<path d="M315.203 25.5087H293.566V3.9679H268.768V25.5087H247.192V50.3261H268.768V71.8669H293.566V50.3261H315.203V25.5087Z" fill="#F7F7F7"/>
<path d="M380.175 106.089H368.809V94.7426H355.742V106.089H344.376V119.135H355.742V130.482H368.809V119.135H380.175V106.089Z" fill="#F7F7F7"/>
<path d="M447.578 242.251H423.328V218.041H395.431V242.251H371.241V270.042H395.431V294.253H423.328V270.042H447.578V242.251Z" fill="#F7F7F7"/>
<path d="M76.2833 118.346H59.2653V101.357H39.6339V118.346H22.616V137.885H39.6339V154.935H59.2653V137.885H76.2833V118.346Z" fill="#F7F7F7"/>
<path d="M323.833 353.171C323.469 356.084 320.734 358.147 317.816 357.783L103.208 329.143C100.291 328.779 98.2242 326.048 98.5888 323.136L136.089 43.3481C136.454 40.4355 139.189 38.3725 142.106 38.7365L356.715 67.3767C359.632 67.7407 361.698 70.4713 361.334 73.3838L323.833 353.171Z" fill="#369986"/>
<path d="M108.557 325.017C105.639 324.652 103.573 321.922 103.937 319.009L141.438 39.222C141.438 39.04 141.498 38.8579 141.559 38.6759C138.824 38.6152 136.454 40.5569 136.089 43.2874L98.5889 323.075C98.2242 325.987 100.23 328.718 103.208 329.082L317.816 357.722C320.551 358.086 323.104 356.266 323.712 353.657C323.53 353.657 323.347 353.657 323.165 353.657L108.557 325.017Z" fill="#177C75"/>
<path d="M155.643 58.8401L122.368 307.356L305.086 331.741L338.362 83.225L155.643 58.8401Z" fill="#FAF8EA"/>
<path d="M303.169 49.4159L276.852 45.8966L277.764 39.1006C279.708 24.7805 269.619 11.5527 255.215 9.67166C240.871 7.72995 227.621 17.8025 225.737 32.1833L224.826 38.9793L198.509 35.4599C195.591 35.0958 192.856 37.1589 192.492 40.0715L189.149 64.8889C188.784 67.8014 190.79 70.5319 193.768 70.896L298.428 84.852C301.346 85.2161 304.081 83.2137 304.445 80.2405L307.788 55.4231C308.153 52.5105 306.086 49.78 303.169 49.4159ZM250.656 43.8942C245.429 43.2267 241.783 38.3725 242.451 33.2148C243.181 27.9965 247.921 24.3558 253.148 25.0233C258.375 25.7514 262.022 30.545 261.353 35.7026C260.685 40.921 255.883 44.6223 250.656 43.8942Z" fill="#034C70"/>
<path d="M198.509 66.7092C195.591 66.3451 193.525 63.6146 193.889 60.7021L197.232 35.8847C197.232 35.7026 197.293 35.5813 197.354 35.3992C194.862 35.5813 192.795 37.4623 192.492 40.0108L189.149 64.8282C188.784 67.7407 190.79 70.4713 193.768 70.8353L298.428 84.7913C301.224 85.1554 303.777 83.335 304.324 80.6652C303.959 80.7259 303.534 80.6652 303.169 80.6652L198.509 66.7092Z" fill="#002845"/>
<path d="M247.439 90.3126L235.415 180.048L305.779 189.445L317.804 99.7102L247.439 90.3126Z" fill="#D8DBD1"/>
<path d="M252.797 97.2048L242.408 174.791L300.362 182.525L310.751 104.939L252.797 97.2048Z" fill="#014772"/>
<path d="M167.246 84.4666L166.618 89.1579L221.62 96.4983L222.248 91.807L167.246 84.4666Z" fill="#9D9C9F"/>
<path d="M164.846 102.736L164.21 107.488L224.513 115.536L225.15 110.784L164.846 102.736Z" fill="#9D9C9F"/>
<path d="M163.246 114.318L162.618 119.01L226.476 127.532L227.104 122.841L163.246 114.318Z" fill="#9D9C9F"/>
<path d="M161.717 125.831L161.089 130.523L221.393 138.571L222.021 133.879L161.717 125.831Z" fill="#9D9C9F"/>
<path d="M160.186 137.361L159.549 142.112L223.407 150.634L224.044 145.883L160.186 137.361Z" fill="#9D9C9F"/>
<path d="M158.678 148.898L158.042 153.649L197.923 158.975L198.56 154.224L158.678 148.898Z" fill="#9D9C9F"/>
<path d="M155.184 174.768L154.555 179.459L218.414 187.982L219.042 183.29L155.184 174.768Z" fill="#9D9C9F"/>
<path d="M153.434 187.678L152.798 192.43L305.937 212.867L306.573 208.115L153.434 187.678Z" fill="#9D9C9F"/>
<path d="M150.825 207.159L150.189 211.91L303.328 232.347L303.964 227.596L150.825 207.159Z" fill="#9D9C9F"/>
<path d="M152.156 197.452L151.52 202.204L304.659 222.641L305.295 217.89L152.156 197.452Z" fill="#9D9C9F"/>
<path d="M148.148 227.274L147.52 231.966L300.659 252.403L301.287 247.712L148.148 227.274Z" fill="#9D9C9F"/>
<path d="M166.506 249.722L165.926 254.052L287.136 270.229L287.716 265.898L166.506 249.722Z" fill="#9D9C9F"/>
<path d="M164.786 262.324L164.206 266.655L285.416 282.831L285.996 278.5L164.786 262.324Z" fill="#9D9C9F"/>
<path d="M163.148 274.954L162.568 279.285L283.778 295.473L284.358 291.143L163.148 274.954Z" fill="#9D9C9F"/>
<path d="M161.404 287.533L160.824 291.864L282.034 308.04L282.614 303.709L161.404 287.533Z" fill="#9D9C9F"/>
<path d="M145.482 246.958L144.903 251.289L153.758 252.47L154.338 248.139L145.482 246.958Z" fill="#9D9C9F"/>
<path d="M143.831 259.565L143.25 263.895L152.106 265.078L152.686 260.748L143.831 259.565Z" fill="#9D9C9F"/>
<path d="M142.117 272.103L141.537 276.434L150.393 277.616L150.973 273.286L142.117 272.103Z" fill="#9D9C9F"/>
<path d="M140.461 284.724L139.88 289.055L148.736 290.237L149.316 285.907L140.461 284.724Z" fill="#9D9C9F"/>
<path d="M102.904 263.003C107.584 263.914 110.623 268.404 109.772 273.076C108.861 277.748 104.363 280.782 99.683 279.933L79.5653 276.11C74.8854 275.2 71.8465 270.709 72.6974 266.037C73.6091 261.365 78.1067 258.331 82.7866 259.181L102.904 263.003Z" fill="#B8D5D9"/>
<path d="M82.7865 259.181C78.1065 258.27 73.6089 261.365 72.6973 266.037C71.7856 270.709 74.8853 275.2 79.5652 276.11L89.5936 278.052L92.8149 261.122L82.7865 259.181Z" fill="#002845"/>
<path d="M92.8151 261.122L89.8977 276.231L98.8929 277.93C103.573 278.84 108.07 275.746 108.982 271.074C109.225 269.921 109.164 268.707 108.921 267.615C107.767 265.309 105.579 263.549 102.843 263.003L92.8151 261.122Z" fill="#CAEAEF"/>
<path d="M72.6972 266.037C72.4541 267.19 72.5149 268.404 72.758 269.496C73.9128 271.802 76.1008 273.561 78.8359 274.107L89.9583 276.231L92.8757 261.122L82.8472 259.181C78.1065 258.331 73.6089 261.365 72.6972 266.037Z" fill="#02598E"/>
<path d="M135.725 310.696C140.465 310.514 144.477 314.216 144.659 318.949C144.841 323.682 141.134 327.686 136.393 327.868L115.972 328.657C111.231 328.839 107.22 325.138 107.037 320.405C106.855 315.672 110.562 311.667 115.303 311.485L135.725 310.696Z" fill="#CDBEBE"/>
<path d="M115.303 311.485C110.562 311.667 106.855 315.672 107.037 320.405C107.22 325.138 111.231 328.839 115.972 328.657L126.182 328.293L125.514 311.061L115.303 311.485Z" fill="#002845"/>
<path d="M125.514 311.061L126.121 326.412L135.299 326.048C140.04 325.866 143.747 321.861 143.565 317.128C143.504 315.915 143.2 314.823 142.775 313.791C141.134 311.789 138.581 310.575 135.785 310.636L125.514 311.061Z" fill="#F7E5E5"/>
<path d="M106.976 320.405C107.037 321.619 107.341 322.711 107.767 323.742C109.408 325.745 111.96 326.958 114.756 326.898L126.061 326.473L125.453 311.121L115.242 311.485C110.502 311.667 106.794 315.611 106.976 320.405Z" fill="#02598E"/>
<path d="M145.692 197.289C148.488 201.112 147.637 206.512 143.808 209.303C139.979 212.094 134.57 211.245 131.774 207.422L119.74 190.918C116.944 187.095 117.795 181.694 121.624 178.903C125.453 176.112 130.862 176.962 133.658 180.784L145.692 197.289Z" fill="#CDBEBE"/>
<path d="M133.658 180.784C130.862 176.962 125.453 176.112 121.624 178.903C117.795 181.694 116.944 187.095 119.74 190.918L125.757 199.17L139.736 189.037L133.658 180.784Z" fill="#002845"/>
<path d="M139.675 189.037L127.216 198.078L132.625 205.48C135.421 209.303 140.83 210.153 144.659 207.361C145.631 206.633 146.422 205.784 146.969 204.813C147.698 202.325 147.333 199.534 145.692 197.289L139.675 189.037Z" fill="#F7E5E5"/>
<path d="M121.624 178.843C120.651 179.571 119.861 180.42 119.314 181.391C118.585 183.879 118.95 186.67 120.591 188.915L127.215 198.078L139.675 189.037L133.658 180.784C130.862 176.901 125.453 176.051 121.624 178.843Z" fill="#02598E"/>
<path d="M195.773 339.155C201.426 342.553 203.249 349.895 199.846 355.598C196.442 361.241 189.088 363.062 183.375 359.664C177.722 356.266 175.899 348.924 179.303 343.22C182.767 337.577 190.121 335.757 195.773 339.155Z" fill="white"/>
<path d="M199.055 353.475C195.652 359.118 188.298 360.938 182.585 357.54C180.579 356.327 178.999 354.628 178.026 352.625C178.816 355.477 180.64 358.026 183.375 359.664C189.027 363.062 196.381 361.241 199.846 355.598C202.034 351.958 202.094 347.65 200.271 344.07C201.183 347.164 200.818 350.562 199.055 353.475Z" fill="#D1C2AA"/>
<path d="M199.055 353.475C200.818 350.562 201.183 347.164 200.332 344.07C199.359 342.128 197.84 340.368 195.773 339.155C190.121 335.757 182.767 337.577 179.302 343.22C177.54 346.193 177.175 349.591 178.026 352.625C178.999 354.567 180.518 356.327 182.584 357.54C188.298 360.999 195.652 359.178 199.055 353.475Z" fill="#F2E0C5"/>
<path d="M200.332 344.07C200.21 343.827 200.089 343.584 199.967 343.341L177.661 348.863C177.601 349.713 177.661 350.623 177.844 351.472L200.696 345.829C200.575 345.283 200.453 344.676 200.332 344.07Z" fill="#D1C2AA"/>
<path d="M115.729 231.026C119.618 236.366 118.464 243.829 113.115 247.712C107.767 251.596 100.291 250.443 96.401 245.043C92.5112 239.703 93.666 232.239 99.0752 228.356C104.363 224.533 111.839 225.686 115.729 231.026Z" fill="white"/>
<path d="M113.176 245.467C107.827 249.351 100.352 248.198 96.4618 242.798C95.0639 240.916 94.3345 238.732 94.213 236.487C93.8483 239.4 94.5169 242.433 96.401 245.043C100.291 250.382 107.767 251.596 113.115 247.712C116.579 245.225 118.281 241.22 118.038 237.276C117.613 240.492 115.972 243.465 113.176 245.467Z" fill="#D1C2AA"/>
<path d="M113.176 245.467C115.972 243.465 117.613 240.431 118.038 237.276C117.916 235.091 117.187 232.907 115.789 230.965C111.899 225.626 104.424 224.412 99.0752 228.295C96.2794 230.298 94.6383 233.332 94.2129 236.487C94.3344 238.671 95.0638 240.856 96.4617 242.798C100.352 248.198 107.827 249.351 113.176 245.467Z" fill="#F2E0C5"/>
<path d="M117.977 237.336C117.977 237.094 117.916 236.79 117.916 236.548L95.2462 232.968C94.8815 233.756 94.5776 234.606 94.3953 235.455L117.673 239.096C117.795 238.489 117.916 237.883 117.977 237.336Z" fill="#D1C2AA"/>
<path d="M87.3451 205.056C87.7097 211.002 83.1513 216.099 77.1951 216.463C71.2388 216.827 66.1334 212.276 65.7687 206.33C65.4041 200.383 69.9624 195.286 75.9187 194.922C81.875 194.558 86.9804 199.109 87.3451 205.056Z" fill="white"/>
<path d="M78.289 214.764C72.3327 215.128 67.2273 210.577 66.8626 204.631C66.7411 202.507 67.2273 200.505 68.1998 198.745C66.498 200.808 65.5255 203.417 65.7078 206.33C66.0725 212.276 71.1779 216.827 77.1342 216.463C80.9632 216.22 84.1845 214.036 85.947 210.941C84.1237 213.126 81.3887 214.582 78.289 214.764Z" fill="#D1C2AA"/>
<path d="M78.2889 214.764C81.3886 214.582 84.1237 213.126 85.947 210.881C86.9195 209.121 87.4057 207.119 87.2841 204.995C86.9195 199.048 81.8141 194.498 75.8578 194.862C72.7581 195.044 70.0231 196.5 68.1997 198.745C67.2273 200.505 66.741 202.507 66.8626 204.631C67.2273 210.577 72.3326 215.128 78.2889 214.764Z" fill="#F2E0C5"/>
<path d="M85.9471 210.941C86.0687 210.759 86.1902 210.517 86.251 210.274L70.7525 196.5C70.084 196.925 69.4762 197.41 68.8684 197.956L84.7923 212.094C85.2786 211.73 85.6432 211.306 85.9471 210.941Z" fill="#D1C2AA"/>
<path d="M323.044 183.333L307.302 150.202C306.208 147.897 303.473 146.926 301.163 148.018C298.854 149.11 297.881 151.841 298.975 154.147L314.717 187.338C314.717 187.338 313.258 209.789 315.385 214.339L355.803 299.41C357.991 304.022 363.461 305.964 368.08 303.779L379.567 298.318C384.187 296.134 386.131 290.673 383.943 286.061L343.526 200.99C341.399 196.439 323.044 183.333 323.044 183.333Z" fill="#D6E9E8"/>
<path d="M369.722 300.624C365.102 302.808 359.632 300.867 357.444 296.255L317.087 211.184C314.899 206.573 316.419 184.182 316.419 184.182L300.617 150.991C300.252 150.202 300.13 149.414 300.191 148.625C298.611 149.96 298.064 152.205 298.975 154.147L314.717 187.338C314.717 187.338 313.258 209.789 315.386 214.339L355.803 299.41C357.991 304.022 363.461 305.964 368.08 303.779L379.568 298.318C381.999 297.165 383.701 295.041 384.43 292.675C383.579 293.707 382.485 294.617 381.209 295.224L369.722 300.624Z" fill="#C4D6D5"/>
<path d="M372.882 279.508C373.125 280.054 372.882 280.661 372.396 280.903L359.207 287.153C358.66 287.396 358.052 287.153 357.809 286.668L330.945 230.055C330.702 229.509 330.945 228.902 331.431 228.659L344.62 222.41C345.167 222.167 345.775 222.41 346.018 222.895L372.882 279.508Z" fill="#B8E1D9"/>
<path d="M358.538 284.483L331.917 228.417L331.37 228.659C330.823 228.902 330.641 229.57 330.884 230.055L357.748 286.668C357.991 287.214 358.66 287.396 359.146 287.153L372.335 280.903C372.882 280.661 373.064 279.993 372.821 279.508L372.578 278.962L359.875 284.969C359.389 285.212 358.781 284.969 358.538 284.483Z" fill="#A1C5BE"/>
<path d="M307.302 150.202C306.208 147.897 303.473 146.926 301.163 148.018C298.854 149.11 297.881 151.841 298.975 154.147L302.744 162.035L311.07 158.091L307.302 150.202Z" fill="#8BB5B8"/>
<path d="M300.616 150.991C300.252 150.202 300.13 149.414 300.191 148.625C299.705 149.05 299.279 149.535 299.036 150.081C298.975 150.202 298.915 150.263 298.915 150.385V150.445C298.854 150.567 298.854 150.627 298.793 150.749C298.793 150.809 298.793 150.809 298.793 150.87C298.793 150.991 298.732 151.052 298.732 151.173C298.732 151.234 298.732 151.234 298.732 151.295C298.671 151.477 298.671 151.659 298.671 151.841C298.671 151.901 298.671 151.901 298.671 151.901C298.671 151.962 298.671 152.023 298.671 152.084C298.671 152.144 298.671 152.205 298.671 152.326C298.671 152.387 298.671 152.448 298.671 152.508C298.671 152.569 298.671 152.69 298.671 152.751C298.671 152.812 298.671 152.872 298.671 152.933C298.671 152.994 298.671 153.115 298.732 153.176C298.732 153.236 298.732 153.297 298.793 153.358C298.793 153.418 298.854 153.54 298.854 153.661C298.854 153.722 298.854 153.722 298.915 153.782C298.975 153.904 299.036 154.025 299.097 154.207L302.865 162.095L305.418 160.882L300.616 150.991Z" fill="#799DA0"/>
<path d="M337.752 215.128C338.603 216.949 337.63 219.254 335.503 220.225C333.376 221.257 330.945 220.589 330.094 218.769C329.243 216.949 330.276 214.643 332.343 213.672C334.47 212.64 336.84 213.308 337.752 215.128Z" fill="#BAC4B8"/>
<path d="M333.133 207.361C333.862 208.878 333.072 210.759 331.37 211.548C329.669 212.337 327.724 211.791 326.994 210.274C326.265 208.757 327.055 206.876 328.757 206.087C330.459 205.298 332.404 205.844 333.133 207.361Z" fill="#BAC4B8"/>
<path d="M330.641 217.859C330.155 216.888 330.276 215.796 330.762 214.825C329.79 215.978 329.486 217.434 330.094 218.708C330.945 220.529 333.376 221.196 335.503 220.165C336.476 219.679 337.205 218.951 337.691 218.101C337.266 218.587 336.719 219.012 336.111 219.315C333.923 220.347 331.492 219.679 330.641 217.859Z" fill="#ADB6AB"/>
<path d="M331.37 211.609C332.16 211.245 332.768 210.577 333.133 209.849C332.829 210.213 332.404 210.517 331.978 210.699C330.276 211.488 328.331 210.941 327.602 209.424C327.237 208.636 327.298 207.725 327.663 206.937C326.812 207.847 326.508 209.182 327.055 210.274C327.663 211.791 329.669 212.398 331.37 211.609Z" fill="#ADB6AB"/>
</g>
</svg>
