<svg width="59" height="59" viewBox="0 0 59 59" fill="none" xmlns="http://www.w3.org/2000/svg">
<path d="M44.4219 20.9204L23.3785 10.3988C9.24313 3.31878 3.44146 9.12044 10.5215 23.2559L12.6602 27.5334C13.2748 28.7871 13.2748 30.2375 12.6602 31.4913L10.5215 35.7442C3.44146 49.8796 9.21854 55.6813 23.3785 48.6013L44.4219 38.0796C53.8619 33.3596 53.8619 25.6404 44.4219 20.9204ZM36.4815 31.3438H23.2065C22.1985 31.3438 21.3627 30.5079 21.3627 29.5C21.3627 28.4921 22.1985 27.6563 23.2065 27.6563H36.4815C37.4894 27.6563 38.3252 28.4921 38.3252 29.5C38.3252 30.5079 37.4894 31.3438 36.4815 31.3438Z" fill="#069DAE"/>
</svg>
